<svg xmlns="http://www.w3.org/2000/svg" width="134.896" height="67.176" viewBox="0 0 134.896 67.176">
  <g id="Group_1" data-name="Group 1" transform="translate(-138.012 -74.449)">
    <path id="Path_1" data-name="Path 1" d="M148.373,127.385v-.056a4.312,4.312,0,0,0,3.142-4.077,4.154,4.154,0,0,0-2.293-3.736c-1.387-.82-3-1.075-5.633-1.075a34.392,34.392,0,0,0-5.577.4v18.739a33.412,33.412,0,0,0,4.671.283c3.793,0,6.114-.627,7.5-1.727a5.084,5.084,0,0,0,1.981-4.048A4.774,4.774,0,0,0,148.373,127.385Zm-6.09-5.69a11.808,11.808,0,0,1,1.84-.113c1.953,0,3.057.764,3.057,2.208,0,1.416-1.217,2.349-3.481,2.349h-1.415Zm1.67,12.965a13.744,13.744,0,0,1-1.67-.056v-5.379h1.471c2.149,0,3.878.765,3.878,2.687,0,1.986-1.722,2.749-3.676,2.749Z" transform="translate(0 -25.59)" fill="#fff"/>
    <path id="Path_2" data-name="Path 2" d="M181.816,130.551c-4.444,0-7.388,2.859-7.388,7.331a6.781,6.781,0,0,0,7.165,7.133,6.946,6.946,0,0,0,7.3-7.388,6.73,6.73,0,0,0-7.081-7.077ZM181.7,141.93c-1.84,0-2.831-1.783-2.831-4.161,0-2.037.765-4.161,2.831-4.161,1.953,0,2.746,2.095,2.746,4.161C184.449,140.26,183.373,141.93,181.7,141.93Z" transform="translate(-21.181 -32.633)" fill="#fff"/>
    <path id="Path_3" data-name="Path 3" d="M225.514,137.627a6.73,6.73,0,0,0-7.075-7.075c-4.444,0-7.388,2.859-7.388,7.331a6.781,6.781,0,0,0,7.165,7.133A6.948,6.948,0,0,0,225.514,137.627Zm-7.19,4.3c-1.84,0-2.831-1.783-2.831-4.161,0-2.037.765-4.161,2.831-4.161,1.953,0,2.746,2.095,2.746,4.161,0,2.5-1.077,4.165-2.748,4.165Z" transform="translate(-42.48 -32.633)" fill="#fff"/>
    <path id="Path_4" data-name="Path 4" d="M238.692,197.257V197.2a4.311,4.311,0,0,0,3.142-4.076,4.154,4.154,0,0,0-2.293-3.736c-1.387-.82-3-1.075-5.633-1.075a34.4,34.4,0,0,0-5.576.4v18.739a33.385,33.385,0,0,0,4.67.283c3.793,0,6.114-.627,7.5-1.728a5.082,5.082,0,0,0,1.982-4.047A4.774,4.774,0,0,0,238.692,197.257Zm-6.09-5.69a11.8,11.8,0,0,1,1.84-.113c1.953,0,3.057.764,3.057,2.208,0,1.415-1.217,2.349-3.482,2.349H232.6Zm1.67,12.965a13.637,13.637,0,0,1-1.67-.056V199.1h1.471c2.149,0,3.878.765,3.878,2.687.007,1.989-1.72,2.753-3.673,2.753Z" transform="translate(-52.536 -66.233)" fill="#fff"/>
    <path id="Path_5" data-name="Path 5" d="M339.259,201.173h-4.331v8.239a2.4,2.4,0,0,1-.141.934,2.315,2.315,0,0,1-2.149,1.5c-1.5,0-2.149-1.217-2.149-3.224v-7.444h-4.331V209.3c0,4.274,2.067,6.029,4.868,6.029a4.937,4.937,0,0,0,4.331-2.265h.085l.2,1.953h3.736c-.057-1.164-.114-2.632-.114-4.445Z" transform="translate(-109.432 -73.711)" fill="#fff"/>
    <path id="Path_6" data-name="Path 6" d="M371.4,200.429a5.067,5.067,0,0,0-4.274,2.208h-.09l-.2-1.9H363.1c.056,1.217.114,2.687.114,4.415v9.426h4.3V206.6a3.058,3.058,0,0,1,.17-1.075,2.3,2.3,0,0,1,2.18-1.612c1.557,0,2.18,1.217,2.18,3v7.671h4.3v-8.209C376.355,202.3,374.23,200.429,371.4,200.429Z" transform="translate(-130.925 -73.279)" fill="#fff"/>
    <path id="Path_7" data-name="Path 7" d="M407.408,203.741a5.893,5.893,0,0,1,2.406.425l.679-3.2a9.991,9.991,0,0,0-3.283-.537c-5.152,0-7.926,3.314-7.926,7.359,0,4.36,2.86,7.106,7.331,7.106a10.4,10.4,0,0,0,3.851-.651l-.509-3.2a6.07,6.07,0,0,1-2.463.453,3.881,3.881,0,0,1-.085-7.756Z" transform="translate(-151.969 -73.279)" fill="#fff"/>
    <path id="Path_8" data-name="Path 8" d="M442.16,207.336c0-3.425-1.7-6.907-6.171-6.907-4.813,0-6.992,3.878-6.992,7.388,0,4.331,2.687,7.075,7.388,7.075a13.644,13.644,0,0,0,5.011-.878l-.566-2.915a12.193,12.193,0,0,1-3.821.566c-2.01,0-3.762-.849-3.907-2.633h8.917A10.181,10.181,0,0,0,442.16,207.336Zm-9.086-1.246a2.822,2.822,0,0,1,2.66-2.8c1.981,0,2.435,1.755,2.435,2.8Z" transform="translate(-169.252 -73.279)" fill="#fff"/>
    <path id="Path_9" data-name="Path 9" d="M261.565,142.694v-7.727c0-2.066.057-3.224.114-4.1h-3.736L257.8,132.5h-.057a4.173,4.173,0,0,0-3.793-1.953c-3.4,0-6.284,2.831-6.284,7.275,0,3.992,2.435,6.765,5.86,6.765a4.426,4.426,0,0,0,3.736-1.812h.057v.905a3.3,3.3,0,0,1-3.595,3.651,8.508,8.508,0,0,1-4.02-1.048l-.849,3.255a10.8,10.8,0,0,0,4.982,1.075,8.54,8.54,0,0,0,5.633-1.7C261.026,147.535,261.565,145.355,261.565,142.694Zm-4.3-4.161a3.656,3.656,0,0,1-.141,1.133,2.337,2.337,0,0,1-2.264,1.754c-1.812,0-2.831-1.612-2.831-3.68,0-2.518,1.274-3.934,2.831-3.934a2.361,2.361,0,0,1,2.321,1.9,3.4,3.4,0,0,1,.085.793Z" transform="translate(-63.78 -32.633)" fill="#fff"/>
    <path id="Path_10" data-name="Path 10" d="M301.843,137.938c0,4.331,2.687,7.075,7.388,7.075a13.642,13.642,0,0,0,5.011-.878l-.566-2.915a12.187,12.187,0,0,1-3.821.566c-2.01,0-3.762-.849-3.907-2.632h8.917a10.189,10.189,0,0,0,.142-1.7c0-3.425-1.7-6.907-6.171-6.907C304.023,130.551,301.843,134.429,301.843,137.938Zm6.737-4.529c1.981,0,2.434,1.755,2.434,2.8h-5.1a2.825,2.825,0,0,1,2.661-2.8Z" transform="translate(-95.292 -32.633)" fill="#fff"/>
    <path id="Path_11" data-name="Path 11" d="M288.806,97.655c1.254,0,2.263-1.842,2.263-4.115s-1.013-4.115-2.263-4.115-2.264,1.842-2.264,4.115S287.556,97.655,288.806,97.655Z" transform="translate(-86.392 -8.713)" fill="#ffd400"/>
    <path id="Path_12" data-name="Path 12" d="M292.428,179.22a1.479,1.479,0,0,1-.257-.025l.653,17.116a65.161,65.161,0,0,0,2.761-17.926l-2.743.779A1.522,1.522,0,0,1,292.428,179.22Z" transform="translate(-89.666 -60.456)" fill="#ffd400"/>
    <path id="Path_13" data-name="Path 13" d="M268.95,94.155c2.806.015,3.045,4.816,1.294,13.923-2.677,13.957,1.929,27.776,1.929,27.776l.664-17.422a1.5,1.5,0,0,1,.09-2.432l.067-1.751h.351l.058,1.53,3.481-.985c-.005-2.432.1-4.912.09-6.919-.043-7.759-1.433-10.379,1.033-13.761,4.866-6.677,1.42-19.665,1.42-19.665s-.189,7.982-1.56,12.028c-1.9,5.594-5.9,4.663-10.013,4.663s-7.75,5.83-7.75,5.83S262.47,94.119,268.95,94.155Z" transform="translate(-71.013 0)" fill="#ffd400"/>
    <path id="Path_14" data-name="Path 14" d="M300.4,196.2c.1.024.192.049.287.075.263.073.517.157.765.244v-2.955c-.155-.04-.309-.081-.466-.116-.2-.045-.391-.09-.59-.125h0l-.476,2.766h0C300.081,196.122,300.237,196.161,300.4,196.2Z" transform="translate(-94.171 -69.144)" fill="#fff"/>
    <path id="Path_15" data-name="Path 15" d="M287.478,183.343q-.121-.157-.252-.31a10.145,10.145,0,0,0-1.85-1.681q-.179-.126-.358-.247c-.194-.128-.4-.25-.6-.369V184.7a4.125,4.125,0,0,1,.48.863,3.552,3.552,0,0,1,.137.414,3.339,3.339,0,0,1,.112.859h0q0,.137-.011.269a.709.709,0,0,1-.013.1c-.006.057-.012.115-.021.171s-.017.084-.026.127-.017.09-.029.136-.026.094-.04.141-.022.08-.035.119-.038.1-.057.153c-.013.033-.024.067-.038.1-.023.056-.05.113-.076.168l-.037.081c-.031.061-.065.121-.1.179l-.034.062c-.039.065-.081.131-.123.2l-.027.042c-.047.07-.1.14-.15.208l-.017.023c-.057.074-.117.148-.179.22h0c-.069.08-.144.157-.219.234V179.033a21.174,21.174,0,0,0-1.689-7.528l2.465-.7a1.044,1.044,0,0,0-.571-2.009L279.4,170.14h0l-3.4.965a1.04,1.04,0,0,0-.685.627h0a1,1,0,0,0-.054.194.03.03,0,0,1-.005.021,1.031,1.031,0,0,0-.01.179v.039a1.037,1.037,0,0,0,.037.22,1.023,1.023,0,0,0,.09.218h0a1.025,1.025,0,0,0,.86.537.86.86,0,0,0,.09,0h.071a1.039,1.039,0,0,0,.174-.031l2.875-.816h0l.348-.1a19.012,19.012,0,0,1,1.612,6.838v12.18a12.682,12.682,0,0,1-4.69.946c-4.681-.084-8.437-2.431-8.437-5.319,0-1.807,1.47-3.4,3.715-4.366l-.523-2.854c-4.174,1.433-7.05,4.456-7.05,7.952,0,4.635,5.057,8.435,11.492,8.814v.006h0c.309.017.23.027.545.027.09,0,.171,0,.257,0s.17,0,.255,0c.314,0,.236-.011.545-.027v-.011q.3-.018.595-.045h.007q.292-.028.579-.064h.014q.287-.037.567-.082h.016q.281-.045.557-.1h.013q.278-.055.55-.119h.006a13.947,13.947,0,0,0,5.211-2.366l.051-.039c.1-.078.2-.158.3-.237l.09-.075c.09-.073.172-.149.255-.223l.114-.1c.076-.071.15-.143.224-.216l.123-.122c.068-.069.133-.14.2-.21l.127-.14c.06-.068.118-.137.179-.206q.064-.076.126-.155.081-.1.156-.2c.042-.056.082-.112.123-.168s.09-.133.138-.2.078-.12.116-.179.082-.133.122-.2.072-.127.108-.191.072-.133.106-.2.065-.134.1-.2.062-.132.09-.2.057-.142.09-.213.051-.13.074-.2.05-.15.073-.225.041-.128.06-.193.041-.159.06-.237c.015-.063.032-.125.045-.186.018-.09.032-.171.047-.257.01-.058.022-.116.03-.175.013-.1.022-.193.031-.289,0-.05.012-.1.015-.149.01-.147.016-.295.016-.448a6.338,6.338,0,0,0-.1-1.13,7.143,7.143,0,0,0-1.425-3.1Z" transform="translate(-73.521 -54.856)" fill="#fff"/>
  </g>
</svg>
